<svg xmlns="http://www.w3.org/2000/svg" viewBox="0 0 913.82 937">
  <defs>
    <style>
      .cls-1 {
        fill: #fff;
      }

      .cls-2 {
        fill: #f50;
      }

      .cls-3 {
        fill: #fcfcfc;
      }

      .cls-4 {
        fill: #000;
      }
    </style>
  </defs>
  <title>RITEsports_TigerLogo_Color</title>
  <g id="Layer_1" data-name="Layer 1">
    <path class="cls-4"
      d="M847.53,641.31q6.5-16.48,11.81-33.37t9.95-34a618.8,618.8,0,0,0,14.22-69.2c.4-2.92.87-5.83,1.22-8.75l1-8.77c.34-2.92.58-5.85.87-8.78l.41-4.4.32-4.4c.19-2.94.46-5.87.6-8.81l.39-8.82c.16-2.94.12-5.89.2-8.83l.09-4.41c0-1.48,0-2.95,0-4.42a352.38,352.38,0,0,0-7.25-70.23c1.34,5.74,2.92,11.46,3.9,17.29l.83,4.36c.27,1.45.58,2.9.77,4.36l1.31,8.78.31,2.2.22,2.21.46,4.41c.3,3,.64,5.89.79,8.85l.6,8.86.3,8.88c.32,11.83.06,23.69-.75,35.51s-2,23.61-3.74,35.32-3.77,23.39-6.3,34.95-5.36,23.06-8.65,34.43-6.83,22.65-10.74,33.81c-2,5.57-4.07,11.1-6.25,16.6S850,636,847.53,641.31Z" />
    <path class="cls-1"
      d="M847.53,641.31c4.78-10.84,9.07-21.89,13-33.07s7.55-22.45,10.78-33.83,6.17-22.85,8.7-34.41,4.63-23.2,6.33-34.9c.4-2.93.9-5.85,1.23-8.79l1.06-8.8c.32-2.94.56-5.89.84-8.83.13-1.47.29-2.94.39-4.42l.28-4.42.28-4.43c.1-1.47.19-3,.22-4.43l.29-8.86c.08-2.95,0-5.91,0-8.87l0-4.43-.13-4.43a317.25,317.25,0,0,0-9.45-70.22l2.3,8.59c.37,1.43.78,2.86,1.11,4.3l.93,4.35c.6,2.9,1.3,5.79,1.81,8.71L889,398.9a313.94,313.94,0,0,1,3.31,35.44l.2,4.45,0,4.45c0,3,.08,5.94,0,8.91l-.24,8.9c0,1.49-.11,3-.2,4.45l-.26,4.45-.26,4.44c-.09,1.49-.25,3-.37,4.44-.27,3-.5,5.92-.8,8.87l-1,8.85c-.32,2.95-.8,5.88-1.2,8.83a497.88,497.88,0,0,1-15.52,69.44C865.85,597.53,857.76,619.92,847.53,641.31Z" />
    <path class="cls-4"
      d="M823.22,682.85q9.72-14.8,18.39-30.25t16.68-31.19a614.89,614.89,0,0,0,28.08-64.82c1-2.78,2-5.53,3-8.32l2.82-8.36c.93-2.79,1.76-5.62,2.65-8.43l1.31-4.21,1.2-4.25c.8-2.83,1.66-5.65,2.39-8.5l2.2-8.55c.75-2.85,1.32-5.74,2-8.6l1-4.31c.33-1.43.58-2.88.88-4.32a352.81,352.81,0,0,0,7.27-70.23c.14,5.9.52,11.81.28,17.72l-.08,4.43c0,1.48,0,3-.14,4.44l-.52,8.86-.14,2.21-.23,2.21-.46,4.42c-.31,2.94-.58,5.89-1,8.81l-1.23,8.8L908,489.16q-3.16,17.47-8,34.61T889.1,557.58c-4.1,11.11-8.48,22.12-13.33,32.92s-10,21.47-15.5,31.93S849,643.2,842.83,653.32q-4.64,7.56-9.51,15C830.08,673.23,826.74,678.11,823.22,682.85Z" />
    <path class="cls-1"
      d="M823.22,682.85c6.9-9.63,13.35-19.57,19.46-29.72s12-20.42,17.48-30.9,10.71-21.1,15.55-31.9,9.28-21.77,13.34-32.87c1-2.78,2.08-5.54,3-8.34l2.84-8.41c.91-2.81,1.75-5.64,2.63-8.47.43-1.41.89-2.82,1.29-4.24l1.18-4.27,1.18-4.28c.4-1.42.78-2.85,1.12-4.29l2.09-8.61c.69-2.88,1.23-5.79,1.86-8.67l.93-4.34.78-4.36a318.14,318.14,0,0,0,5.12-70.67l.49,8.87c.07,1.48.18,3,.21,4.45l0,4.44c0,3,.08,5.94,0,8.9l-.35,8.89a315.82,315.82,0,0,1-4,35.37l-.72,4.4-.87,4.37c-.6,2.9-1.14,5.82-1.81,8.72L904,515.58c-.32,1.45-.7,2.89-1.1,4.32l-1.16,4.29-1.17,4.3c-.39,1.44-.85,2.85-1.27,4.27-.87,2.84-1.69,5.69-2.6,8.52l-2.8,8.45c-.92,2.83-2,5.6-3,8.4a499,499,0,0,1-29.41,64.8C850.11,643.75,837.61,664,823.22,682.85Z" />
    <path class="cls-4"
      d="M825.4,709.53q6.5-16.49,11.82-33.37t9.94-33.94A615,615,0,0,0,861.38,573c.4-2.91.87-5.82,1.22-8.74l1-8.77c.35-2.93.58-5.86.87-8.79l.42-4.4.31-4.4c.2-2.93.47-5.87.6-8.81l.4-8.82c.15-2.94.11-5.88.19-8.83l.09-4.41c0-1.47,0-2.94,0-4.41a352.42,352.42,0,0,0-7.26-70.24c1.35,5.75,2.93,11.46,3.9,17.29L864,454c.28,1.45.58,2.9.77,4.37l1.31,8.78.31,2.2.23,2.2.45,4.42c.3,2.94.64,5.89.8,8.84l.59,8.86.3,8.88c.33,11.84.06,23.7-.75,35.51s-2,23.61-3.73,35.33-3.78,23.38-6.31,35-5.36,23.06-8.64,34.42-6.83,22.66-10.75,33.81q-3,8.35-6.24,16.6C830.15,698.71,827.89,704.17,825.4,709.53Z" />
    <path class="cls-1"
      d="M825.4,709.53c4.79-10.84,9.07-21.89,13-33.07s7.56-22.44,10.78-33.83,6.17-22.85,8.7-34.41,4.63-23.2,6.33-34.9c.4-2.93.91-5.84,1.23-8.78l1.06-8.81c.32-2.94.56-5.88.84-8.83.13-1.47.29-2.94.39-4.41l.28-4.43.28-4.42c.1-1.48.19-2.95.22-4.43l.29-8.86c.08-3,0-5.92,0-8.87l0-4.44-.12-4.43a317.94,317.94,0,0,0-9.46-70.22l2.3,8.59c.37,1.44.78,2.86,1.11,4.31l.93,4.34c.6,2.91,1.3,5.8,1.81,8.72l1.49,8.77a316.26,316.26,0,0,1,3.3,35.44l.2,4.45,0,4.46c0,3,.08,5.94,0,8.9l-.24,8.91c0,1.48-.1,3-.2,4.45l-.26,4.44-.26,4.45c-.09,1.48-.25,3-.37,4.44-.27,3-.49,5.91-.8,8.87l-1,8.85c-.31,3-.8,5.88-1.19,8.82a500.89,500.89,0,0,1-15.52,69.45C843.73,665.76,835.64,688.14,825.4,709.53Z" />
    <path class="cls-4"
      d="M892.44,552.25c-11.06-36.88-10.13-47.32-46.09-99.57,0,0,56.23-1.11-18.25-188.74,0,0-10.2-28.52-11.76-37.62-8.14-47.69-37.62-130.5-87.82-172.44,0,0-31.89-24.05-77.95-19.2,0,0-3.52,32.92,0,49.38,1.33,6.19-5.88-11.76-4.7-18.81,0,0-12.64-4-22.34,10.58,0,0,5.6-9.83-13.79-31.64,0,0,4.85,24.24-2.43,36.36,0,0-12.12-43.63-67.87-50.91,0,0,7.27,7.28,14.54,24.24,0,0-66.32-39.34-102.69-53.88,0,0,15.14,23.22,20,32.92,0,0-71.2-17.08-105.22-21.75V28.8s-20-2.35-51.73-3.52l1.17,8.23S192.05-7.64,85.37,61.52C63.37,75.78,92.12,72.3,98,98.17l4.7,8.23s1.18,5.88-21.16,10.58c0,0,49.08,16.53,20,14.11,0,0-8.23,41.15-52.91,1.17,0,0-9.4,27.05,2.35,70.55l21.16,65.83L54.5,279.23C-3.11,356.82,0,399.29,0,399.29c11-20.13,20.37-29.54,20.37-29.54C-7.81,405,6.3,514.36,6.3,514.36s27.25-55.76,23.09-42.47c-15.3,48.84-14.86,91.85-14.86,91.85,40-37.62,79.94-22.34,95.23-18.81.6.14-45.86,12.93-77.6,28.22,0,0,36.45,15.28,100.25,29.09,1.1.24,1.48.86,1.41.87-75.79,7.66-94.6,28.82-94.6,28.82C118,699,223.75,776.12,313.15,784.77c36.45,3.53,76.42-4.7,76.42-4.7-21.16,16.46-23.51,23.51-27,55.26,116.39-55.26,141.83-8.83,141.83,50,0,.53,17.63-20,17.63-20,5.87,15,17.24,29.66,33.09,43.18,6.59,5.62,10.41,14.43,24.52,26.19l6.56-3.85L585,929.64S606.8,951.46,667.4,920l1.55,5.31c14.11-7,27.61-19.12,38.92-27.92,12.67-9.87,25.16-23.7,44.3-42.84,0,0-3.16-7-5.62-9.19-1.89-1.64-6.37-2.86-5.88-3.52,5.51-7.46.41-38.8-.06-38.2-8.53,10.9-19.44,21.49-25.41,28.3l-3.46-21.5s-24.54-16.84-24.24-44.32c16.83-10,58.87-44.34,73.93-68.18,7.17-1.82,15-3.49,23.48-5-1.33,8.27-8.4,47.21-27.78,79.52,0,0,41.31-20.82,80.09-71.73,0,0,12-6.57,15.5-7.75,13.59-4.53,32.24-28.79,44.55-49.39,3.24-5.43,3.72-20.29,3.88-26.62C901.66,596.5,897.89,570.4,892.44,552.25Z" />
    <path class="cls-2"
      d="M840.8,482.3c-4.1-5.3-14.7-17.67-22.44-26.63a54.72,54.72,0,0,0-3.36,13.6s-10.68-20.54-5.53-24A32.75,32.75,0,0,1,820,440.54c15.85-7.38,33-16,33.93-23.63,2.35-18.82-9.65-70.05-18.81-91.71A165.23,165.23,0,0,0,815,290.68a282.17,282.17,0,0,1-18.47,31.08l-7.37-42.41s2.23-1.12,9.31-9.45c-2.9-3.59-5.61-7.07-8-10.54-6-8.5-16.2-19.46-25.42-29.32a43.16,43.16,0,0,1-6.65,5.34l-19.64-32.57s-7.68-14.59-9.51-24.72C720.56,186,717.57,190,717.57,190s-1.18-34.1-5.88-41.15c0,0-15.28,1.17-21.16,5.88-.06,0-3.53-22.34-3.53-22.34l-5.88,5.88-2.35-21.16-10.06,1.53s-4-20.57-5.81-22.28c-2.91-2.67-19.4,14.87-19.4,14.87-12.93-11.76-8.23-29.39-8.23-29.39-8.23,3.52-16.46,15.28-16.46,15.28,4.7-16.46-3.53-30.57-3.53-30.57,2.36,15.29-4.7,21.16-4.7,21.16l-4.7,3.53c-11.76-38.8-45.85-47-45.85-47a37.75,37.75,0,0,1-1,19.48L482.43,26.58l2.27,17c6.69,7.63,9.68,19.88,4.84,20.84L493,98.29s-3.52-4.7-36.44,7.06c0,0-47,29.39-40,60a40,40,0,0,1-17.33-27c-6.05,8.54-16.42,16.87-32.05,24.68-14.1,7-17.63,7-17.63,7,123.09-53.71-19-140.43-172.89-136.51C137,38.31,104.32,58.56,92.93,66.55c-9.28,6.51,4.71,7.06,4.71,7.06s30.91-20,93.22-9.41c24.24,4.12,63.93,25,83.48,40,14.71,11.23,31.74,28.22,44.67,43.5,14.59,17.24,22.34,43.5,22.34,43.5-14.32,0-48.46,5.77-48.2,5.88,22.33,9.41,21.16,21.16,21.16,21.16-38.8-1.17-56.89,8.3-91.7,22.34-7.29,2.94-34.1,22.34-55.26,63.49,0,0,15.28-21.16,57.61-21.16,0,0-60,49.38-21.17,127l3,77.78,271.17,75.54,253.74,55.2c1.17-16.46,13.25-27.28,13.25-27.28S761,608,763.35,609.53c24.35,16,102.73,10.18,119.86,9.22,4.55-.26,9.22-5.53,9.22-5.53V598.47S880.77,534,840.8,482.3ZM595.58,141.06C590,115.24,579,109.71,579,109.71s70.07,31.35,103.34,84.87c0,0,16.86,31.92,16.46,31.74-60.24-27.37-85.7-41.8-112.42-59.45-9-5.93-19.67-13.72-25.82-18.44-21.45-16.46-59-20.28-59-20.28C520,106,595.58,141.06,595.58,141.06ZM725.82,271c5.9,7.53,6.2,54.45,6.2,54.45s-7.69-15.69-31.34-46.1c-12.91-16.6-22.13-20.28-38.72-33.19,0,0,7.37,0,20.28-7.38C682.24,238.78,713.59,255.38,725.82,271ZM492.32,137.37c57.16,22.13,72.24,29.77,182.54,97.73l-29.5,5.53c-40.56-3.69-84.82-12.91-106.94-27.66,0,0,24-11.06,14.75-12.91-47.82-9.56-110.64-7.37-110.64-7.37C449.91,150.28,492.32,137.37,492.32,137.37ZM353.12,370.93,359,408.55c5.88,27,40.42,43.89,40.42,43.89-56.32-7.12-62-24-65.64-31.14C330.82,415.51,353.12,370.93,353.12,370.93ZM209.69,459.11C208.51,406.2,315.5,301.56,315.5,301.56c-136.38,150.49-40.6,149.86,0,152.84,40.83,3,127,16.46,127,16.46C355.29,480.75,210.51,496,209.69,459.11Zm501.52,1c-8.87-.37-29,8.58-29,8.58s18.91-11.65,24.83-13.47c5-1.53,22.21-3.2,35.49,20.28C742.58,475.47,730.51,460.9,711.21,460.08Zm41.44-44c-3.07,3.24-18.62,11-25.9,14.52,6.64.35,13,2.48,16.34,9.16,8.25,16.5,11.62,39.79,11.06,38.72-19.94-38.23-38.61-31.35-53.47-31.35-5.24,0-22-1.21-33.7-2.38a39.69,39.69,0,0,1-6.09-.45c12,13.62,14.37,21.85,14.37,21.85-115.22-31.74-143,8.14-143,8.14,4.15-22.18,12.46-35.18,12.46-35.18-49.89-26.33-41.57-38.28-44.34-45.21s-22.18-16.63-22.18-16.63c-12.47,15.25-2.77,45.74-2.77,45.74-34.64-24.95-23.56-56.82-23.56-56.82s-49.05-4.76-48.5-5.55c36.71-53.21,105.5-75.77,105.5-75.77s-1.84,14.75,18.44,40.57c4.84,6.15,59,51.63,80.9,66.64,20.61,14.14,33.54,21.36,43.5,25.87,22,10,53,12.81,66.33,13.59l6.57-1h.22l21.44-21.11C750.51,394.67,734,376,734,376,768.85,398.19,756.05,412.49,752.65,416.09Zm-2.14-89.84c-10.59-74.07-41.15-108.16-57.61-135.2-2.49-4.09,33.7,15.49,40,24.69,17.64,25.86,38.8,48.2,50.56,110.51,1.77,9.41-1.18,14.11-11.76,24.69C770.33,352.28,751.5,333.24,750.51,326.25Zm30.56,82.3c-2-3.62-5.87-16.46,12-28.51,0,0-10.52,10.36-8.44,25,1,6.72,11.37,21.07,11.37,21.07S783.45,412.85,781.07,408.55Z" />
    <path class="cls-2"
      d="M684.2,109.92c2.6,2,3.71,9.24,6.07,12l.28-.28a5.06,5.06,0,0,0-.06.53c4.67,5.55,10,11.66,15.94,18.53a50.06,50.06,0,0,0,8.81-2.6c5,9.94,5.73,17.33,5.85,19.39l5.26,6,4.17-12.49c1.59,8.35,5.6,18.85,10.21,29.09,6.32,7.32,13.08,15.23,20.36,23.81,16.55,19.54,26.93,31.39,48.2,56.43,0,0-32.92-209.27-147-217.5,0,0-6.22,4.6-5.88,10.58,1.22,21.41,1.29,31.12,18.07,52.56Z" />
    <path class="cls-3"
      d="M650.31,128.32l5.81-29s10.65,12.59,9.68,28.08l11.62-15.49s8.72,1,7.75,9.68c3.75-1.63,2.91-18.4-1-20.33l-7.74,1.93,1.93-5.81s-11.62-1.94-12.53-19.15c0,0-18.2,6-22,27.7v0s-7.26-24.72-1.43-36.2c0,0-36.63,12.16-24,36.37l6.78-11.62S638.69,101.21,650.31,128.32Z" />
    <path class="cls-1"
      d="M717.27,873.08c0,8.23-34.47,30-62.69,40.57,0,0-28.21,15.36-57.34,5.73-6-2-11.76-10.58-18.82,1.18,0,0-17.95-12.27-19.13-33.43,0,0-2.44.7-6.12,6.23,0,0-41.54-36.87-12-125.38,0,0-.88,42.41,43.37,94C584.51,862,717.27,860.15,717.27,873.08Z" />
    <path class="cls-1"
      d="M626.26,834.23s9.4-11.76,49.37-32.92a214.93,214.93,0,0,1-3.52,35.27s0,3.52,16.46,0c0,0,12.63,0,20.86,3.52,0,0,5.88,3.53,4.71,4.71,0,0,4,1.15,22.33-27,0,0,2.35,21.16-7.05,35.27a6.55,6.55,0,0,1-7,3.52c-15.29-2.35-14.26-3.95-30.57-5.87-18.57-2.19-26.67.71-55.26-2.36-32.92-3.52-17.15-7.05-18.33-8.23S626.26,834.23,626.26,834.23Z" />
    <path class="cls-1"
      d="M751.2,694s-3.53,12.93-67,61.14c0,0-8.23-34.1-4.71-78.77C679.48,676.34,694.77,697.5,751.2,694Z" />
    <path class="cls-1"
      d="M830,699.53s-31.82,42.05-57.69,57.33c0,0,14.53-22.27,20.8-57.42C793.13,699.44,819.44,708.93,830,699.53Z" />
    <path class="cls-1" 
      d="M675.24,466.28l-.46-.25-2.12-.57C674.32,466,675.24,466.28,675.24,466.28Z" />
    <path class="cls-1"
      d="M748.6,629.81c-97.72-62.69-151-155.3-151-155.3,13.37-18.88,43.59-16.17,62.12-12.32C557.53,438,532.3,474.3,532.3,474.3c4.15-22.18,12.46-35.18,12.46-35.18-49.89-26.33-41.57-38.28-44.34-45.21s-22.18-16.63-22.18-16.63c-6.78,8.3-7,21.11-5.79,31.06C486.63,422.2,493,432.19,493,432.19c-41.15-2.35-56.43-14.11-56.43-14.11,15.28,41.15,81.12,55.26,81.12,55.26l-3.52,9.4s29.39,9.41,11.75,24.69-34.09,27-34.09,27c-14.11-23.51-16.46-52.9-16.46-52.9a164.87,164.87,0,0,0-33.29-10.66c-87.23,9.89-231.58,25-232.4-11.8-1.14-51.44,99.92-151.74,105.55-157.29-2.85,1.52-33,17.62-43.26,23.38-65.24,36.6-178.7,226.91,16.46,214S503.59,667.33,503.59,667.33c-11.75-23.52-74.06-32.92-74.06-32.92,70.54,49.38,88.17,119.92,88.17,119.92,1.18-35.27,41.15-48.21,41.15-60s-23.51-61.14-23.51-61.14c-4.7-40,34.4-31.07,34.4-31.07s76.89,40,105.11,55.31,85.26,30.64,121.69,22.13c4.77-1.11,10.14-21.28,10.14-21.28Z" />
    <path class="cls-1"
      d="M404.47,361a276.48,276.48,0,0,1,47.22,29.35,45.87,45.87,0,0,1,.22-24.12S411.59,362.28,404.47,361Z" />
    <path class="cls-1" d="M604.36,430l-13.86-8.32s-36.33,24.54-39.86-40.12l-28.22-22.34S533.68,466,604.36,430Z" />
    <path class="cls-1"
      d="M833.55,660c-3.2.76-13,23.12-13,23.12s0,3.69,12.91,3.69c0,0,27.15,8.11,49.49-34.21,0,0,2.14-2.67,2.14-8.2C885.07,644.44,882.93,648.28,833.55,660Z" />
    <path class="cls-1"
      d="M497.73,810.64S441.3,786,414.26,796.53c0,0-1.18-23.52,31.74-38.8,0,0-166.94,43.5-345.65-109.34,0,0,45.38-30,109.34-30.57,3.83,0,7.05,0,7.05,0s-77.59-44.67-131.67-43.5c0,0,48.2-18.81,65.84-12.93,0,0-42.95-58.27-117.52-36,0,0,1.12-65.12,48.15-141.54a468.16,468.16,0,0,0-56.43,55.26s9.4-103.46,87-175.18c0,0-22.34-27-21.16-83.47,0,0,48.2,38.8,190.46,28.21,0,0-125.8,16.46-148.14,58.79,0,0,15.28-4.7,38.8-3.53,0,0-44.68,37.62-88.18,97.58l76.42-37.62S91,439.12,152.08,513.19c0,0,64.66,92.88,198.69,147,0,0,17.64-16.46-7-43.5C343.72,616.65,469.52,704.82,497.73,810.64Z" />
    <circle class="clss-4" cx="717.27" cy="631.53" r="1.84" />
    <circle class="clss-4" cx="689.62" cy="624.16" r="1.84" />
    <circle class="clss-4" cx="693.3" cy="657.35" r="1.84" />
    <path class="cls-1"
      d="M494.33,53.76c-22.6-6.2-50.68-10.85-90.65-23.78,0,0,1.17,11.76,7.05,16.46,0,0-36.05-9.8-60.35-5.49,0,0,42.72,7.84,62.7,27.83,0,0,14.11,30.57-5.87,52.9,0,0,28.21-25.86,62.31-31.74l25.86,10.58s1.18-8.23-2.35-14.11c0,0,29.39-9.4,55.26,18.81C548.29,105.22,544.76,67.6,494.33,53.76Z" />
    <path class="cls-4"
      d="M717.27,631.53c-3.29-3.85-6.67-7.64-10.09-11.38-1.7-1.88-3.41-3.76-5.13-5.62s-3.44-3.72-5.18-5.56l-10.46-11c-3.55-3.62-7-7.29-10.64-10.86Q654.41,565.46,631.94,545c-15-13.6-30.24-26.91-45.92-39.7s-31.67-25.18-48.07-37l-6.15-4.44c-2-1.49-4.09-3-6.18-4.38l-12.49-8.61c-4.19-2.82-8.45-5.54-12.67-8.32-2.12-1.38-4.22-2.79-6.36-4.13l-6.44-4-6.43-4c-2.14-1.35-4.29-2.69-6.48-3.94l-13.08-7.67c-2.17-1.3-4.41-2.48-6.62-3.7l-6.64-3.65-6.64-3.67c-2.23-1.19-4.49-2.31-6.73-3.48-4.51-2.29-9-4.64-13.51-6.89l-13.7-6.5c-4.54-2.25-9.21-4.18-13.84-6.22l-7-3-3.48-1.51L380,378.77l-14.12-5.6c-2.34-1-4.75-1.75-7.13-2.6L351.61,368l-7.17-2.55c-2.39-.84-4.83-1.52-7.24-2.29l-14.52-4.56,14.77,3.72c2.45.64,4.93,1.21,7.36,1.94l7.29,2.2,7.3,2.22c2.42.76,4.87,1.45,7.26,2.33l14.39,5.05a571.49,571.49,0,0,1,56,24.16c2.29,1.12,4.59,2.2,6.86,3.35l6.76,3.55,6.75,3.57c2.25,1.2,4.52,2.35,6.71,3.64l13.28,7.54c2.23,1.23,4.4,2.55,6.58,3.88l6.53,3.95,6.52,4c2.17,1.34,4.28,2.76,6.42,4.13,4.27,2.78,8.57,5.5,12.8,8.33l12.61,8.6c2.12,1.42,4.19,2.9,6.25,4.39l6.2,4.45,6.19,4.47,6.09,4.6,6.08,4.6c2,1.53,4.06,3.07,6,4.66l12,9.46,11.79,9.69c15.56,13.1,30.81,26.57,45.5,40.63s29,28.5,42.8,43.41c6.87,7.49,13.66,15,20.24,22.78S711.13,623.45,717.27,631.53Z" />
    <path class="cls-1"
      d="M717.27,631.53c-3.12-4-6.34-8-9.61-11.86-1.62-2-3.25-3.91-4.91-5.84s-3.29-3.88-5-5.79c-3.32-3.86-6.72-7.64-10.1-11.44s-6.81-7.55-10.32-11.24Q656.64,563,634.52,542C605,514,574,487.53,541,463.81l-6.17-4.47-3.09-2.24-3.14-2.16-12.55-8.64L503.29,438c-4.23-2.81-8.59-5.42-12.93-8.06l-6.51-4c-1.09-.66-2.16-1.34-3.26-2l-3.31-1.88L464,414.59c-4.45-2.45-9-4.75-13.46-7.14l-6.73-3.57L437,400.54a554.17,554.17,0,0,0-114.31-41.9l14.87,3.47c2.48.6,5,1.14,7.43,1.8l7.34,2.1,7.35,2.1,3.67,1.05,1.84.52,1.81.6,14.5,4.83A552.75,552.75,0,0,1,438,398.53l6.91,3.26,6.81,3.49c4.52,2.37,9.07,4.67,13.55,7.1l13.33,7.5,3.33,1.87c1.11.64,2.19,1.32,3.28,2l6.55,3.95c4.37,2.63,8.76,5.23,13,8L517.6,444l12.64,8.62,3.16,2.16,3.11,2.22,6.2,4.47c16.47,12,32.56,24.58,48.08,37.8s30.71,26.83,45.27,41.08C665.19,568.83,692.83,599,717.27,631.53Z" />
    <path class="cls-4"
      d="M689.58,624.38q-6.14-4.86-12.42-9.51-3.12-2.36-6.27-4.67t-6.31-4.61c-4.22-3.06-8.47-6.07-12.72-9.09s-8.53-6-12.85-8.89Q613.23,570,586.57,553.68a1088.53,1088.53,0,0,0-109.83-59.12c-4.72-2.16-9.41-4.41-14.17-6.5l-14.29-6.22c-2.38-1.07-4.79-2-7.2-3l-7.22-2.93L426.64,473l-7.29-2.77c-4.86-1.83-9.69-3.75-14.58-5.49l-14.72-5.14-3.68-1.28-3.72-1.17-7.43-2.36-7.42-2.38c-2.47-.82-5-1.45-7.48-2.19l-15-4.29-15.12-3.79-3.78-1c-1.26-.33-2.52-.65-3.8-.9L315,438.61,307.39,437l-3.82-.82c-1.27-.27-2.56-.46-3.83-.7l-15.36-2.77c-2.56-.51-5.14-.83-7.72-1.19l-7.73-1.09-7.74-1.1c-1.29-.21-2.58-.31-3.88-.44l-3.89-.39-15.56-1.6,15.64.73,3.91.2c1.3.07,2.61.11,3.91.26l7.79.74,7.8.76c2.6.26,5.21.48,7.79.89l15.53,2.19c1.29.19,2.59.35,3.88.58l3.85.71,7.71,1.42,7.72,1.43c1.29.22,2.57.49,3.84.78l3.83.85,15.31,3.45,15.18,4q30.3,8.22,59.75,19.23t57.89,24.23c2.37,1.11,4.76,2.18,7.11,3.32l7.05,3.45c4.68,2.32,9.42,4.55,14,7l13.94,7.2,13.79,7.47c18.26,10.19,36.27,20.82,53.85,32.13s34.84,23.1,51.68,35.45c8.4,6.21,16.73,12.5,24.89,19S681.78,617.44,689.58,624.38Z" />
    <path class="cls-1"
      d="M689.58,624.38c-3.94-3.44-8-6.79-12-10.08q-3-2.49-6.1-4.94c-2-1.64-4.08-3.27-6.14-4.87-4.11-3.25-8.28-6.4-12.43-9.58s-8.36-6.28-12.61-9.34Q615,567,588.55,550.1C570.92,538.87,553,528,534.77,517.87s-36.91-19.62-55.83-28.45l-7.11-3.31c-2.37-1.1-4.72-2.22-7.13-3.24l-14.37-6.24c-4.8-2.05-9.68-3.93-14.52-5.9-2.42-1-4.84-2-7.27-2.91l-7.35-2.71-7.35-2.7c-2.45-.91-4.89-1.83-7.38-2.63l-14.86-5c-2.47-.86-5-1.57-7.48-2.32l-7.51-2.24-7.5-2.26c-2.51-.72-5-1.35-7.57-2-5.05-1.32-10.09-2.71-15.15-4l-15.29-3.43c-5.08-1.24-10.24-2.07-15.38-3L308,434.12l-3.85-.7-3.88-.55-15.52-2.24c-2.58-.43-5.19-.6-7.79-.88l-7.8-.78-7.81-.77c-2.6-.24-5.22-.3-7.83-.47l-15.67-.87,15.7.44c2.61.1,5.23.11,7.84.29l7.83.62,7.84.61c2.6.23,5.23.34,7.82.72l15.6,1.92,3.9.49,3.87.65,7.75,1.32c5.16.91,10.35,1.67,15.46,2.85L346.85,440c5.1,1.2,10.18,2.53,15.26,3.79,2.54.65,5.1,1.25,7.63,1.94l7.55,2.17,7.55,2.21c2.51.74,5,1.44,7.52,2.3l14.94,4.91c2.5.79,4.95,1.71,7.42,2.61l7.39,2.68,7.38,2.69c2.45.94,4.88,1.93,7.32,2.89,4.86,2,9.76,3.82,14.59,5.86l14.45,6.2c2.42,1,4.79,2.13,7.17,3.23l7.14,3.29a883.42,883.42,0,0,1,109.6,61.45C624.72,571.32,658.5,596.31,689.58,624.38Z" />
    <path class="cls-4"
      d="M693.54,657c-4.71-1.88-9.46-3.66-14.23-5.39-2.37-.88-4.76-1.74-7.15-2.59s-4.77-1.7-7.17-2.52l-14.39-4.91c-4.82-1.56-9.62-3.19-14.46-4.67q-29-9.23-58.35-16.91c-19.6-5.08-39.29-9.78-59.11-13.83s-39.75-7.58-59.76-10.44l-7.51-1.08c-2.5-.37-5-.73-7.51-1l-15.06-1.82c-5-.55-10.06-1-15.09-1.49-2.51-.23-5-.5-7.55-.7l-7.56-.55-7.56-.56c-2.52-.2-5-.39-7.56-.48l-15.15-.72c-2.52-.15-5.05-.15-7.58-.2l-7.57-.14-7.59-.17c-2.52,0-5.05,0-7.58,0-5.05.06-10.11.06-15.16.17l-15.16.61c-5.06.11-10.09.57-15.14.92l-7.57.55-3.78.28-3.77.41-15.1,1.61c-2.53.22-5,.65-7.53,1l-7.52,1.09-7.52,1.07c-2.51.36-5,.9-7.48,1.33l-15,2.71,14.8-3.57c2.48-.56,4.94-1.21,7.43-1.7l7.48-1.43,7.49-1.42c2.5-.46,5-1,7.51-1.31L277.14,587A570.54,570.54,0,0,1,338,582.37c2.54-.07,5.09-.18,7.63-.22h7.63l7.64,0c2.54,0,5.09,0,7.63.11l15.26.51c2.55.06,5.09.21,7.63.38l7.62.46,7.62.49c2.54.18,5.07.45,7.6.67,5.07.48,10.14.89,15.2,1.43L444.62,588c2.53.27,5.05.62,7.57,1l7.55,1.06,7.56,1.09,7.53,1.25,7.53,1.25c2.51.41,5,.83,7.51,1.31l15,2.81,14.94,3.12c19.87,4.37,39.63,9.22,59.17,14.84s38.92,11.77,58.07,18.57c9.56,3.43,19.08,7,28.5,10.77S684.35,652.74,693.54,657Z" />
    <path class="cls-1"
      d="M693.54,657c-4.63-2.1-9.31-4.1-14-6-2.34-1-4.7-1.94-7.06-2.89s-4.72-1.9-7.09-2.82c-4.73-1.88-9.5-3.65-14.25-5.45s-9.55-3.52-14.36-5.16Q608,624.5,578.64,616.14c-39.11-11.08-78.85-20.09-119.1-25.76l-7.54-1.1-3.77-.54-3.79-.45-15.13-1.83L414.14,585c-5.05-.53-10.12-.81-15.19-1.14l-7.61-.49c-1.26-.07-2.53-.17-3.8-.23l-3.8-.13-15.23-.51c-5.08-.1-10.16,0-15.24-.07l-7.62,0-7.62.22a555.15,555.15,0,0,0-120.69,16l14.78-3.83c2.47-.62,4.93-1.3,7.41-1.86l7.48-1.55,7.48-1.55,3.75-.78,1.87-.39,1.88-.31,15.09-2.46A551.59,551.59,0,0,1,338,580.43l7.65-.32,7.64-.07c5.1,0,10.2-.08,15.3,0l15.29.45,3.82.11c1.28,0,2.55.14,3.82.22l7.63.45c5.09.31,10.19.57,15.26,1.08l15.24,1.36,15.19,1.76,3.8.45,3.79.52,7.57,1.08c20.17,3,40.24,6.64,60.13,11.14s39.65,9.5,59.18,15.36C618.29,625.71,656.76,639.54,693.54,657Z" />
  </g>
</svg>